<mxfile host="Electron" modified="2023-12-20T15:53:55.916Z" agent="Mozilla/5.0 (X11; Linux x86_64) AppleWebKit/537.36 (KHTML, like Gecko) draw.io/22.1.2 Chrome/114.0.5735.289 Electron/25.9.4 Safari/537.36" etag="2LMxxb5u9d-9YSGRiUYF" version="22.1.2" type="device">
  <diagram name="Sensor Initialization Sequence" id="fo18u6Ch1KVScq3Fo-Wy">
    <mxGraphModel dx="1903" dy="1897" grid="1" gridSize="10" guides="1" tooltips="1" connect="1" arrows="1" fold="1" page="1" pageScale="1" pageWidth="800" pageHeight="350" background="#999999" math="0" shadow="0">
      <root>
        <object label="" description="Sequence diagram for sensor node initialization process." rev="1.2" id="0">
          <mxCell />
        </object>
        <object label="Title Block" id="1">
          <mxCell style="locked=1;" parent="0" />
        </object>
        <mxCell id="h7L3MlKvrl_dhOmhB3lf-10" value="Prepared with: draw.io v22.1.2" style="strokeWidth=1;shadow=0;dashed=0;align=center;html=1;shape=mxgraph.mockup.text.textBox;fontColor=#666666;align=left;fontSize=17;spacingLeft=4;spacingTop=-3;whiteSpace=wrap;strokeColor=#333333;mainText=;fillColor=none;fontFamily=Open Sans;movable=1;resizable=1;rotatable=1;deletable=1;editable=1;locked=0;connectable=1;" parent="1" vertex="1">
          <mxGeometry x="220" y="300" width="280" height="30" as="geometry" />
        </mxCell>
        <object label="&lt;div align=&quot;left&quot;&gt;Sheet %pagenumber%/%pagecount%&lt;/div&gt;" placeholders="1" id="h7L3MlKvrl_dhOmhB3lf-12">
          <mxCell style="strokeWidth=1;shadow=0;dashed=0;align=left;html=1;shape=mxgraph.mockup.text.textBox;fontColor=#666666;align=left;fontSize=17;spacingLeft=4;spacingTop=-3;whiteSpace=wrap;strokeColor=#333333;mainText=;fillColor=none;fontFamily=Open Sans;movable=1;resizable=1;rotatable=1;deletable=1;editable=1;locked=0;connectable=1;" parent="1" vertex="1">
            <mxGeometry x="60" y="300" width="160" height="30" as="geometry" />
          </mxCell>
        </object>
        <object label="Date: &lt;font style=&quot;font-size: 17px;&quot;&gt;%date{ddd mmm dd yyyy HH:MM:ss}%&lt;/font&gt;" placeholders="1" id="h7L3MlKvrl_dhOmhB3lf-13">
          <mxCell style="strokeWidth=1;shadow=0;dashed=0;align=center;html=1;shape=mxgraph.mockup.text.textBox;fontColor=#666666;align=left;fontSize=17;spacingLeft=4;spacingTop=-3;whiteSpace=wrap;strokeColor=#333333;mainText=;fillColor=none;fontFamily=Open Sans;movable=1;resizable=1;rotatable=1;deletable=1;editable=1;locked=0;connectable=1;" parent="1" vertex="1">
            <mxGeometry x="500" y="300" width="280" height="30" as="geometry" />
          </mxCell>
        </object>
        <object label="&lt;b&gt;Title: %page%&lt;/b&gt;" placeholders="1" id="h7L3MlKvrl_dhOmhB3lf-14">
          <mxCell style="strokeWidth=1;shadow=0;dashed=0;align=center;html=1;shape=mxgraph.mockup.text.textBox;fontColor=#666666;align=left;fontSize=17;spacingLeft=4;spacingTop=-3;whiteSpace=wrap;strokeColor=#333333;mainText=;fillColor=none;fontFamily=Open Sans;movable=1;resizable=1;rotatable=1;deletable=1;editable=1;locked=0;connectable=1;" parent="1" vertex="1">
            <mxGeometry x="60" y="240" width="720" height="30" as="geometry" />
          </mxCell>
        </object>
        <object label="Filename: %filename%" placeholders="1" id="h7L3MlKvrl_dhOmhB3lf-15">
          <mxCell style="strokeWidth=1;shadow=0;dashed=0;align=center;html=1;shape=mxgraph.mockup.text.textBox;fontColor=#666666;align=left;fontSize=17;spacingLeft=4;spacingTop=-3;whiteSpace=wrap;strokeColor=#333333;mainText=;fillColor=none;fontFamily=Open Sans;movable=1;resizable=1;rotatable=1;deletable=1;editable=1;locked=0;connectable=1;" parent="1" vertex="1">
            <mxGeometry x="60" y="270" width="560" height="30" as="geometry" />
          </mxCell>
        </object>
        <object label="&lt;div align=&quot;left&quot;&gt;%description%&lt;/div&gt;" placeholders="1" id="h7L3MlKvrl_dhOmhB3lf-16">
          <mxCell style="strokeWidth=1;shadow=0;dashed=0;html=1;shape=mxgraph.mockup.text.textBox;fontColor=#666666;align=left;verticalAlign=top;fontSize=12;spacingLeft=4;spacingTop=-3;whiteSpace=wrap;strokeColor=#333333;mainText=;fillColor=none;fontFamily=Open Sans;movable=1;resizable=1;rotatable=1;deletable=1;editable=1;locked=0;connectable=1;" parent="1" vertex="1">
            <mxGeometry x="60" y="200" width="720" height="40" as="geometry" />
          </mxCell>
        </object>
        <object label="&lt;b&gt;Rev: %rev%&lt;br&gt;&lt;/b&gt;" placeholders="1" id="EyKvBmyPNv_MzgSUc5b6-1">
          <mxCell style="strokeWidth=1;shadow=0;dashed=0;align=center;html=1;shape=mxgraph.mockup.text.textBox;fontColor=#666666;align=left;fontSize=17;spacingLeft=4;spacingTop=-3;whiteSpace=wrap;strokeColor=#333333;mainText=;fillColor=none;fontFamily=Open Sans;movable=1;resizable=1;rotatable=1;deletable=1;editable=1;locked=0;connectable=1;" parent="1" vertex="1">
            <mxGeometry x="620" y="270" width="160" height="30" as="geometry" />
          </mxCell>
        </object>
        <object label="Drawing Frame" id="2jkEU8j2_UPUL1MGRyPS-1">
          <mxCell style="locked=1;" parent="0" />
        </object>
        <mxCell id="2jkEU8j2_UPUL1MGRyPS-2" value="" style="rounded=0;whiteSpace=wrap;html=1;fillColor=none;strokeWidth=3;movable=1;resizable=1;rotatable=1;deletable=1;editable=1;locked=0;connectable=1;" parent="2jkEU8j2_UPUL1MGRyPS-1" vertex="1">
          <mxGeometry x="-370" y="-870" width="1150" height="1200" as="geometry" />
        </mxCell>
        <object label="Document" id="NbdiYjX3MhI7OpqD2NvG-1">
          <mxCell parent="0" />
        </object>
        <mxCell id="Iwt6Ft-PqrTWGJXxDrMG-68" value="SDK Init" style="html=1;align=left;spacingLeft=2;endArrow=block;rounded=0;edgeStyle=orthogonalEdgeStyle;curved=0;rounded=0;fontFamily=Open Sans;" parent="NbdiYjX3MhI7OpqD2NvG-1" edge="1">
          <mxGeometry relative="1" as="geometry">
            <mxPoint x="-190" y="-775" as="sourcePoint" />
            <Array as="points">
              <mxPoint x="-160" y="-745" />
            </Array>
            <mxPoint x="-185" y="-745" as="targetPoint" />
          </mxGeometry>
        </mxCell>
        <mxCell id="soHo0XY42Y3cPcA4Dpxr-1" value="Deep Sleep" style="html=1;align=left;spacingLeft=2;endArrow=cross;rounded=0;edgeStyle=orthogonalEdgeStyle;curved=0;rounded=0;fontFamily=Open Sans;endFill=0;" parent="NbdiYjX3MhI7OpqD2NvG-1" edge="1">
          <mxGeometry relative="1" as="geometry">
            <mxPoint x="-190" y="30" as="sourcePoint" />
            <Array as="points">
              <mxPoint x="-160" y="60" />
            </Array>
            <mxPoint x="-185" y="60" as="targetPoint" />
          </mxGeometry>
        </mxCell>
        <mxCell id="Iwt6Ft-PqrTWGJXxDrMG-18" value="ESP SDK" style="shape=umlLifeline;perimeter=lifelinePerimeter;whiteSpace=wrap;html=1;container=1;dropTarget=0;collapsible=0;recursiveResize=0;outlineConnect=0;portConstraint=eastwest;newEdgeStyle={&quot;curved&quot;:0,&quot;rounded&quot;:0};fontFamily=Open Sans;fillColor=#F0F0F0;" parent="NbdiYjX3MhI7OpqD2NvG-1" vertex="1">
          <mxGeometry x="-240" y="-840" width="100" height="1010" as="geometry" />
        </mxCell>
        <mxCell id="Iwt6Ft-PqrTWGJXxDrMG-22" value="" style="html=1;points=[[0,0,0,0,5],[0,1,0,0,-5],[1,0,0,0,5],[1,1,0,0,-5]];perimeter=orthogonalPerimeter;outlineConnect=0;targetShapes=umlLifeline;portConstraint=eastwest;newEdgeStyle={&quot;curved&quot;:0,&quot;rounded&quot;:0};fontFamily=Open Sans;fillColor=#F0F0F0;" parent="Iwt6Ft-PqrTWGJXxDrMG-18" vertex="1">
          <mxGeometry x="45" y="50" width="10" height="860" as="geometry" />
        </mxCell>
        <mxCell id="X4nFBjzq5EHVSmgv_8_O-25" value="" style="html=1;points=[[0,0,0,0,5],[0,1,0,0,-5],[1,0,0,0,5],[1,1,0,0,-5]];perimeter=orthogonalPerimeter;outlineConnect=0;targetShapes=umlLifeline;portConstraint=eastwest;newEdgeStyle={&quot;curved&quot;:0,&quot;rounded&quot;:0};fillColor=#F0F0F0;" parent="Iwt6Ft-PqrTWGJXxDrMG-18" vertex="1">
          <mxGeometry x="50" y="245" width="10" height="195" as="geometry" />
        </mxCell>
        <mxCell id="X4nFBjzq5EHVSmgv_8_O-26" value="loop_task()" style="html=1;align=left;spacingLeft=2;endArrow=block;rounded=0;edgeStyle=orthogonalEdgeStyle;curved=0;rounded=0;fontFamily=Open Sans;" parent="Iwt6Ft-PqrTWGJXxDrMG-18" target="X4nFBjzq5EHVSmgv_8_O-25" edge="1">
          <mxGeometry x="0.0118" relative="1" as="geometry">
            <mxPoint x="55" y="225" as="sourcePoint" />
            <Array as="points">
              <mxPoint x="85" y="255" />
            </Array>
            <mxPoint as="offset" />
          </mxGeometry>
        </mxCell>
        <mxCell id="X4nFBjzq5EHVSmgv_8_O-41" value="" style="html=1;points=[[0,0,0,0,5],[0,1,0,0,-5],[1,0,0,0,5],[1,1,0,0,-5]];perimeter=orthogonalPerimeter;outlineConnect=0;targetShapes=umlLifeline;portConstraint=eastwest;newEdgeStyle={&quot;curved&quot;:0,&quot;rounded&quot;:0};fillColor=#F0F0F0;" parent="Iwt6Ft-PqrTWGJXxDrMG-18" vertex="1">
          <mxGeometry x="50" y="450" width="10" height="370" as="geometry" />
        </mxCell>
        <mxCell id="soHo0XY42Y3cPcA4Dpxr-8" value="" style="html=1;points=[[0,0,0,0,5],[0,1,0,0,-5],[1,0,0,0,5],[1,1,0,0,-5]];perimeter=orthogonalPerimeter;outlineConnect=0;targetShapes=umlLifeline;portConstraint=eastwest;newEdgeStyle={&quot;curved&quot;:0,&quot;rounded&quot;:0};fillColor=#F0F0F0;" parent="NbdiYjX3MhI7OpqD2NvG-1" vertex="1">
          <mxGeometry x="-195" y="115" width="10" height="20" as="geometry" />
        </mxCell>
        <mxCell id="ss8lnyH1w7NE9zKizXeq-1" value="Config Mode" style="html=1;align=left;spacingLeft=2;endArrow=block;rounded=0;edgeStyle=orthogonalEdgeStyle;curved=0;rounded=0;fontFamily=Open Sans;" parent="NbdiYjX3MhI7OpqD2NvG-1" edge="1">
          <mxGeometry relative="1" as="geometry">
            <mxPoint x="290" y="-110" as="sourcePoint" />
            <Array as="points">
              <mxPoint x="320" y="-80" />
            </Array>
            <mxPoint x="295.0000000000002" y="-80" as="targetPoint" />
            <mxPoint as="offset" />
          </mxGeometry>
        </mxCell>
        <mxCell id="X4nFBjzq5EHVSmgv_8_O-40" value="Evaluate Reset Reason" style="html=1;align=left;spacingLeft=2;endArrow=block;rounded=0;edgeStyle=orthogonalEdgeStyle;curved=0;rounded=0;fontFamily=Open Sans;" parent="NbdiYjX3MhI7OpqD2NvG-1" edge="1">
          <mxGeometry relative="1" as="geometry">
            <mxPoint x="130" y="-180" as="sourcePoint" />
            <Array as="points">
              <mxPoint x="160" y="-150" />
            </Array>
            <mxPoint x="135.00000000000023" y="-150" as="targetPoint" />
            <mxPoint as="offset" />
          </mxGeometry>
        </mxCell>
        <mxCell id="X4nFBjzq5EHVSmgv_8_O-38" value="boot_count++" style="html=1;align=left;spacingLeft=2;endArrow=block;rounded=0;edgeStyle=orthogonalEdgeStyle;curved=0;rounded=0;fontFamily=Open Sans;" parent="NbdiYjX3MhI7OpqD2NvG-1" edge="1">
          <mxGeometry relative="1" as="geometry">
            <mxPoint x="610" y="-255" as="sourcePoint" />
            <Array as="points">
              <mxPoint x="640" y="-225" />
            </Array>
            <mxPoint x="615.0000000000002" y="-225" as="targetPoint" />
            <mxPoint as="offset" />
          </mxGeometry>
        </mxCell>
        <mxCell id="X4nFBjzq5EHVSmgv_8_O-37" value="Initialize RTC Mem" style="html=1;align=left;spacingLeft=2;endArrow=block;rounded=0;edgeStyle=orthogonalEdgeStyle;curved=0;rounded=0;fontFamily=Open Sans;" parent="NbdiYjX3MhI7OpqD2NvG-1" edge="1">
          <mxGeometry relative="1" as="geometry">
            <mxPoint x="610" y="-325" as="sourcePoint" />
            <Array as="points">
              <mxPoint x="640" y="-295" />
            </Array>
            <mxPoint x="615.0000000000002" y="-295" as="targetPoint" />
            <mxPoint as="offset" />
          </mxGeometry>
        </mxCell>
        <mxCell id="X4nFBjzq5EHVSmgv_8_O-2" value="Check RTC Magic" style="html=1;align=left;spacingLeft=2;endArrow=block;rounded=0;edgeStyle=orthogonalEdgeStyle;curved=0;rounded=0;fontFamily=Open Sans;" parent="NbdiYjX3MhI7OpqD2NvG-1" edge="1">
          <mxGeometry relative="1" as="geometry">
            <mxPoint x="610" y="-380" as="sourcePoint" />
            <Array as="points">
              <mxPoint x="640" y="-350" />
            </Array>
            <mxPoint x="615.0000000000002" y="-350" as="targetPoint" />
            <mxPoint as="offset" />
          </mxGeometry>
        </mxCell>
        <mxCell id="X4nFBjzq5EHVSmgv_8_O-24" value="Heap Init" style="html=1;align=left;spacingLeft=2;endArrow=block;rounded=0;edgeStyle=orthogonalEdgeStyle;curved=0;rounded=0;fontFamily=Open Sans;" parent="NbdiYjX3MhI7OpqD2NvG-1" edge="1">
          <mxGeometry relative="1" as="geometry">
            <mxPoint x="-190" y="-665" as="sourcePoint" />
            <Array as="points">
              <mxPoint x="-160" y="-635" />
            </Array>
            <mxPoint x="-185" y="-635" as="targetPoint" />
          </mxGeometry>
        </mxCell>
        <mxCell id="Iwt6Ft-PqrTWGJXxDrMG-19" value="Arduino SDK" style="shape=umlLifeline;perimeter=lifelinePerimeter;whiteSpace=wrap;html=1;container=1;dropTarget=0;collapsible=0;recursiveResize=0;outlineConnect=0;portConstraint=eastwest;newEdgeStyle={&quot;curved&quot;:0,&quot;rounded&quot;:0};fontFamily=Open Sans;fillColor=#F0F0F0;" parent="NbdiYjX3MhI7OpqD2NvG-1" vertex="1">
          <mxGeometry x="-80" y="-840" width="100" height="1010" as="geometry" />
        </mxCell>
        <mxCell id="Iwt6Ft-PqrTWGJXxDrMG-60" value="" style="html=1;points=[[0,0,0,0,5],[0,1,0,0,-5],[1,0,0,0,5],[1,1,0,0,-5]];perimeter=orthogonalPerimeter;outlineConnect=0;targetShapes=umlLifeline;portConstraint=eastwest;newEdgeStyle={&quot;curved&quot;:0,&quot;rounded&quot;:0};fontFamily=Open Sans;fillColor=#F0F0F0;" parent="Iwt6Ft-PqrTWGJXxDrMG-19" vertex="1">
          <mxGeometry x="45" y="295" width="10" height="55" as="geometry" />
        </mxCell>
        <mxCell id="Iwt6Ft-PqrTWGJXxDrMG-20" value="Main" style="shape=umlLifeline;perimeter=lifelinePerimeter;whiteSpace=wrap;html=1;container=1;dropTarget=0;collapsible=0;recursiveResize=0;outlineConnect=0;portConstraint=eastwest;newEdgeStyle={&quot;curved&quot;:0,&quot;rounded&quot;:0};fontFamily=Open Sans;fillColor=#F0F0F0;" parent="NbdiYjX3MhI7OpqD2NvG-1" vertex="1">
          <mxGeometry x="80" y="-840" width="100" height="1010" as="geometry" />
        </mxCell>
        <mxCell id="Iwt6Ft-PqrTWGJXxDrMG-31" value="" style="html=1;points=[[0,0,0,0,5],[0,1,0,0,-5],[1,0,0,0,5],[1,1,0,0,-5]];perimeter=orthogonalPerimeter;outlineConnect=0;targetShapes=umlLifeline;portConstraint=eastwest;newEdgeStyle={&quot;curved&quot;:0,&quot;rounded&quot;:0};fontFamily=Open Sans;fillColor=#F0F0F0;" parent="Iwt6Ft-PqrTWGJXxDrMG-20" vertex="1">
          <mxGeometry x="45" y="110" width="10" height="40" as="geometry" />
        </mxCell>
        <mxCell id="Iwt6Ft-PqrTWGJXxDrMG-42" value="" style="html=1;points=[[0,0,0,0,5],[0,1,0,0,-5],[1,0,0,0,5],[1,1,0,0,-5]];perimeter=orthogonalPerimeter;outlineConnect=0;targetShapes=umlLifeline;portConstraint=eastwest;newEdgeStyle={&quot;curved&quot;:0,&quot;rounded&quot;:0};fontFamily=Open Sans;fillColor=#F0F0F0;" parent="Iwt6Ft-PqrTWGJXxDrMG-20" vertex="1">
          <mxGeometry x="45" y="275" width="10" height="545" as="geometry" />
        </mxCell>
        <mxCell id="Iwt6Ft-PqrTWGJXxDrMG-27" value="preinit()" style="html=1;verticalAlign=bottom;endArrow=block;endSize=8;curved=0;rounded=0;fontFamily=Open Sans;entryX=0;entryY=0;entryDx=0;entryDy=5;entryPerimeter=0;endFill=1;fontSize=11;" parent="NbdiYjX3MhI7OpqD2NvG-1" source="Iwt6Ft-PqrTWGJXxDrMG-22" target="Iwt6Ft-PqrTWGJXxDrMG-31" edge="1">
          <mxGeometry x="-0.5128" width="80" relative="1" as="geometry">
            <mxPoint x="15" y="-750" as="sourcePoint" />
            <mxPoint x="205" y="-750" as="targetPoint" />
            <mxPoint as="offset" />
          </mxGeometry>
        </mxCell>
        <mxCell id="Iwt6Ft-PqrTWGJXxDrMG-33" value="Sensors" style="shape=umlLifeline;perimeter=lifelinePerimeter;whiteSpace=wrap;html=1;container=1;dropTarget=0;collapsible=0;recursiveResize=0;outlineConnect=0;portConstraint=eastwest;newEdgeStyle={&quot;curved&quot;:0,&quot;rounded&quot;:0};fontFamily=Open Sans;fillColor=#F0F0F0;" parent="NbdiYjX3MhI7OpqD2NvG-1" vertex="1">
          <mxGeometry x="400" y="-840" width="100" height="1010" as="geometry" />
        </mxCell>
        <mxCell id="Iwt6Ft-PqrTWGJXxDrMG-63" value="" style="html=1;points=[[0,0,0,0,5],[0,1,0,0,-5],[1,0,0,0,5],[1,1,0,0,-5]];perimeter=orthogonalPerimeter;outlineConnect=0;targetShapes=umlLifeline;portConstraint=eastwest;newEdgeStyle={&quot;curved&quot;:0,&quot;rounded&quot;:0};fontFamily=Open Sans;fillColor=#F0F0F0;" parent="Iwt6Ft-PqrTWGJXxDrMG-33" vertex="1">
          <mxGeometry x="45" y="370" width="10" height="30" as="geometry" />
        </mxCell>
        <mxCell id="X4nFBjzq5EHVSmgv_8_O-1" value="RTC Mem" style="shape=umlLifeline;perimeter=lifelinePerimeter;whiteSpace=wrap;html=1;container=1;dropTarget=0;collapsible=0;recursiveResize=0;outlineConnect=0;portConstraint=eastwest;newEdgeStyle={&quot;curved&quot;:0,&quot;rounded&quot;:0};fontFamily=Open Sans;fillColor=#F0F0F0;" parent="NbdiYjX3MhI7OpqD2NvG-1" vertex="1">
          <mxGeometry x="560" y="-840" width="100" height="1010" as="geometry" />
        </mxCell>
        <mxCell id="X4nFBjzq5EHVSmgv_8_O-6" value="" style="html=1;points=[[0,0,0,0,5],[0,1,0,0,-5],[1,0,0,0,5],[1,1,0,0,-5]];perimeter=orthogonalPerimeter;outlineConnect=0;targetShapes=umlLifeline;portConstraint=eastwest;newEdgeStyle={&quot;curved&quot;:0,&quot;rounded&quot;:0};fontFamily=Open Sans;fillColor=#F0F0F0;" parent="X4nFBjzq5EHVSmgv_8_O-1" vertex="1">
          <mxGeometry x="45" y="420" width="10" height="220" as="geometry" />
        </mxCell>
        <mxCell id="X4nFBjzq5EHVSmgv_8_O-9" value="Connection Manager" style="shape=umlLifeline;perimeter=lifelinePerimeter;whiteSpace=wrap;html=1;container=1;dropTarget=0;collapsible=0;recursiveResize=0;outlineConnect=0;portConstraint=eastwest;newEdgeStyle={&quot;curved&quot;:0,&quot;rounded&quot;:0};fontFamily=Open Sans;fillColor=#F0F0F0;" parent="NbdiYjX3MhI7OpqD2NvG-1" vertex="1">
          <mxGeometry x="240" y="-840" width="100" height="1010" as="geometry" />
        </mxCell>
        <mxCell id="X4nFBjzq5EHVSmgv_8_O-11" value="" style="html=1;points=[[0,0,0,0,5],[0,1,0,0,-5],[1,0,0,0,5],[1,1,0,0,-5]];perimeter=orthogonalPerimeter;outlineConnect=0;targetShapes=umlLifeline;portConstraint=eastwest;newEdgeStyle={&quot;curved&quot;:0,&quot;rounded&quot;:0};fontFamily=Open Sans;fillColor=#F0F0F0;" parent="X4nFBjzq5EHVSmgv_8_O-9" vertex="1">
          <mxGeometry x="45" y="120" width="10" height="20" as="geometry" />
        </mxCell>
        <mxCell id="X4nFBjzq5EHVSmgv_8_O-42" value="" style="html=1;points=[[0,0,0,0,5],[0,1,0,0,-5],[1,0,0,0,5],[1,1,0,0,-5]];perimeter=orthogonalPerimeter;outlineConnect=0;targetShapes=umlLifeline;portConstraint=eastwest;newEdgeStyle={&quot;curved&quot;:0,&quot;rounded&quot;:0};fontFamily=Open Sans;fillColor=#F0F0F0;" parent="X4nFBjzq5EHVSmgv_8_O-9" vertex="1">
          <mxGeometry x="45" y="720" width="10" height="60" as="geometry" />
        </mxCell>
        <mxCell id="X4nFBjzq5EHVSmgv_8_O-20" style="rounded=0;orthogonalLoop=1;jettySize=auto;html=1;exitX=0;exitY=1;exitDx=0;exitDy=-5;exitPerimeter=0;dashed=1;endArrow=block;endFill=1;" parent="NbdiYjX3MhI7OpqD2NvG-1" source="Iwt6Ft-PqrTWGJXxDrMG-31" target="Iwt6Ft-PqrTWGJXxDrMG-22" edge="1">
          <mxGeometry relative="1" as="geometry" />
        </mxCell>
        <mxCell id="X4nFBjzq5EHVSmgv_8_O-21" value="connectivity_preinit()" style="html=1;verticalAlign=bottom;endArrow=block;endSize=8;curved=0;rounded=0;fontFamily=Open Sans;endFill=1;entryX=0;entryY=0;entryDx=0;entryDy=5;entryPerimeter=0;fontSize=11;" parent="NbdiYjX3MhI7OpqD2NvG-1" source="Iwt6Ft-PqrTWGJXxDrMG-31" target="X4nFBjzq5EHVSmgv_8_O-11" edge="1">
          <mxGeometry width="80" relative="1" as="geometry">
            <mxPoint x="-175" y="-715" as="sourcePoint" />
            <mxPoint x="290" y="-725" as="targetPoint" />
            <mxPoint as="offset" />
          </mxGeometry>
        </mxCell>
        <mxCell id="X4nFBjzq5EHVSmgv_8_O-23" style="rounded=0;orthogonalLoop=1;jettySize=auto;html=1;exitX=0;exitY=1;exitDx=0;exitDy=-5;exitPerimeter=0;dashed=1;endArrow=block;endFill=1;" parent="NbdiYjX3MhI7OpqD2NvG-1" source="X4nFBjzq5EHVSmgv_8_O-11" target="Iwt6Ft-PqrTWGJXxDrMG-31" edge="1">
          <mxGeometry relative="1" as="geometry">
            <mxPoint x="175" y="-675" as="sourcePoint" />
            <mxPoint x="-175" y="-675" as="targetPoint" />
          </mxGeometry>
        </mxCell>
        <mxCell id="X4nFBjzq5EHVSmgv_8_O-28" value="setup()" style="html=1;verticalAlign=bottom;endArrow=block;endSize=8;curved=0;rounded=0;fontFamily=Open Sans;entryX=0;entryY=0;entryDx=0;entryDy=5;entryPerimeter=0;endFill=1;fontSize=11;" parent="NbdiYjX3MhI7OpqD2NvG-1" source="X4nFBjzq5EHVSmgv_8_O-25" target="Iwt6Ft-PqrTWGJXxDrMG-42" edge="1">
          <mxGeometry x="-0.5128" width="80" relative="1" as="geometry">
            <mxPoint x="-175" y="-715" as="sourcePoint" />
            <mxPoint x="135" y="-715" as="targetPoint" />
            <mxPoint as="offset" />
          </mxGeometry>
        </mxCell>
        <mxCell id="X4nFBjzq5EHVSmgv_8_O-29" value="LED Init" style="html=1;verticalAlign=bottom;endArrow=block;endSize=8;curved=0;rounded=0;fontFamily=Open Sans;entryX=1;entryY=0;entryDx=0;entryDy=5;entryPerimeter=0;endFill=1;fontSize=11;" parent="NbdiYjX3MhI7OpqD2NvG-1" source="Iwt6Ft-PqrTWGJXxDrMG-42" target="Iwt6Ft-PqrTWGJXxDrMG-60" edge="1">
          <mxGeometry width="80" relative="1" as="geometry">
            <mxPoint x="-170" y="-550" as="sourcePoint" />
            <mxPoint x="135" y="-550" as="targetPoint" />
            <mxPoint as="offset" />
          </mxGeometry>
        </mxCell>
        <mxCell id="X4nFBjzq5EHVSmgv_8_O-30" value="Serial.begin()" style="html=1;verticalAlign=bottom;endArrow=block;endSize=8;curved=0;rounded=0;fontFamily=Open Sans;endFill=1;fontSize=11;" parent="NbdiYjX3MhI7OpqD2NvG-1" edge="1">
          <mxGeometry width="80" relative="1" as="geometry">
            <mxPoint x="125" y="-511" as="sourcePoint" />
            <mxPoint x="-25" y="-511" as="targetPoint" />
            <mxPoint as="offset" />
          </mxGeometry>
        </mxCell>
        <mxCell id="X4nFBjzq5EHVSmgv_8_O-31" style="rounded=0;orthogonalLoop=1;jettySize=auto;html=1;dashed=1;endArrow=block;endFill=1;exitX=1;exitY=1;exitDx=0;exitDy=-5;exitPerimeter=0;" parent="NbdiYjX3MhI7OpqD2NvG-1" source="Iwt6Ft-PqrTWGJXxDrMG-60" target="Iwt6Ft-PqrTWGJXxDrMG-42" edge="1">
          <mxGeometry relative="1" as="geometry">
            <mxPoint x="135" y="-685" as="sourcePoint" />
            <mxPoint x="-175" y="-685" as="targetPoint" />
          </mxGeometry>
        </mxCell>
        <mxCell id="X4nFBjzq5EHVSmgv_8_O-32" value="sensors_init()" style="html=1;verticalAlign=bottom;endArrow=block;endSize=8;curved=0;rounded=0;fontFamily=Open Sans;entryX=0;entryY=0;entryDx=0;entryDy=5;entryPerimeter=0;endFill=1;fontSize=11;" parent="NbdiYjX3MhI7OpqD2NvG-1" source="Iwt6Ft-PqrTWGJXxDrMG-42" target="Iwt6Ft-PqrTWGJXxDrMG-63" edge="1">
          <mxGeometry x="-0.5128" width="80" relative="1" as="geometry">
            <mxPoint x="110" y="-455" as="sourcePoint" />
            <mxPoint x="415" y="-455" as="targetPoint" />
            <mxPoint as="offset" />
          </mxGeometry>
        </mxCell>
        <mxCell id="X4nFBjzq5EHVSmgv_8_O-33" style="rounded=0;orthogonalLoop=1;jettySize=auto;html=1;exitX=0;exitY=1;exitDx=0;exitDy=-5;exitPerimeter=0;dashed=1;endArrow=block;endFill=1;" parent="NbdiYjX3MhI7OpqD2NvG-1" source="Iwt6Ft-PqrTWGJXxDrMG-63" target="Iwt6Ft-PqrTWGJXxDrMG-42" edge="1">
          <mxGeometry relative="1" as="geometry">
            <mxPoint x="135" y="-685" as="sourcePoint" />
            <mxPoint x="-175" y="-685" as="targetPoint" />
          </mxGeometry>
        </mxCell>
        <mxCell id="X4nFBjzq5EHVSmgv_8_O-34" value="load_rtc_memory()" style="html=1;verticalAlign=bottom;endArrow=block;endSize=8;curved=0;rounded=0;fontFamily=Open Sans;entryX=0;entryY=0;entryDx=0;entryDy=5;entryPerimeter=0;endFill=1;fontSize=11;" parent="NbdiYjX3MhI7OpqD2NvG-1" source="Iwt6Ft-PqrTWGJXxDrMG-42" target="X4nFBjzq5EHVSmgv_8_O-6" edge="1">
          <mxGeometry x="-0.6809" width="80" relative="1" as="geometry">
            <mxPoint x="145" y="-455" as="sourcePoint" />
            <mxPoint x="455" y="-455" as="targetPoint" />
            <mxPoint as="offset" />
          </mxGeometry>
        </mxCell>
        <mxCell id="X4nFBjzq5EHVSmgv_8_O-35" value="rtcUserMemoryRead()" style="html=1;verticalAlign=bottom;endArrow=block;endSize=8;curved=0;rounded=0;fontFamily=Open Sans;endFill=1;fontSize=11;" parent="NbdiYjX3MhI7OpqD2NvG-1" edge="1">
          <mxGeometry x="-0.8101" width="80" relative="1" as="geometry">
            <mxPoint x="605" y="-395" as="sourcePoint" />
            <mxPoint x="-185" y="-395" as="targetPoint" />
            <mxPoint as="offset" />
          </mxGeometry>
        </mxCell>
        <mxCell id="X4nFBjzq5EHVSmgv_8_O-36" value="cond (RTC Magic invalid)" style="shape=umlFrame;whiteSpace=wrap;html=1;pointerEvents=0;fillColor=#E6E6E6;width=150;height=25;fontFamily=Open Sans;dashed=1;align=left;dashPattern=12 12;" parent="NbdiYjX3MhI7OpqD2NvG-1" vertex="1">
          <mxGeometry x="430" y="-335" width="320" height="70" as="geometry" />
        </mxCell>
        <mxCell id="X4nFBjzq5EHVSmgv_8_O-39" style="rounded=0;orthogonalLoop=1;jettySize=auto;html=1;exitX=0;exitY=1;exitDx=0;exitDy=-5;exitPerimeter=0;dashed=1;endArrow=block;endFill=1;" parent="NbdiYjX3MhI7OpqD2NvG-1" source="X4nFBjzq5EHVSmgv_8_O-6" target="Iwt6Ft-PqrTWGJXxDrMG-42" edge="1">
          <mxGeometry relative="1" as="geometry">
            <mxPoint x="450" y="-440" as="sourcePoint" />
            <mxPoint x="140" y="-440" as="targetPoint" />
          </mxGeometry>
        </mxCell>
        <mxCell id="X4nFBjzq5EHVSmgv_8_O-43" value="enter_config_mode()" style="html=1;verticalAlign=bottom;endArrow=open;endSize=8;curved=0;rounded=0;fontFamily=Open Sans;endFill=0;entryX=0;entryY=0;entryDx=0;entryDy=5;entryPerimeter=0;fontSize=11;" parent="NbdiYjX3MhI7OpqD2NvG-1" source="Iwt6Ft-PqrTWGJXxDrMG-42" target="X4nFBjzq5EHVSmgv_8_O-42" edge="1">
          <mxGeometry width="80" relative="1" as="geometry">
            <mxPoint x="145" y="-705" as="sourcePoint" />
            <mxPoint x="295" y="-705" as="targetPoint" />
            <mxPoint as="offset" />
          </mxGeometry>
        </mxCell>
        <mxCell id="X4nFBjzq5EHVSmgv_8_O-44" value="cond (EXT_SYS_RST)" style="shape=umlFrame;whiteSpace=wrap;html=1;pointerEvents=0;fillColor=#E6E6E6;width=140;height=20;fontFamily=Open Sans;dashed=1;align=left;dashPattern=12 12;" parent="NbdiYjX3MhI7OpqD2NvG-1" vertex="1">
          <mxGeometry x="-340" y="-140" width="1090" height="230" as="geometry" />
        </mxCell>
        <mxCell id="X4nFBjzq5EHVSmgv_8_O-45" value="cond (else)" style="shape=umlFrame;whiteSpace=wrap;html=1;pointerEvents=0;fillColor=#E6E6E6;width=140;height=20;fontFamily=Open Sans;dashed=1;align=left;dashPattern=12 12;" parent="NbdiYjX3MhI7OpqD2NvG-1" vertex="1">
          <mxGeometry x="-340" y="90" width="1090" height="60" as="geometry" />
        </mxCell>
        <mxCell id="X4nFBjzq5EHVSmgv_8_O-46" style="rounded=0;orthogonalLoop=1;jettySize=auto;html=1;dashed=1;endArrow=block;endFill=1;exitX=0;exitY=1;exitDx=0;exitDy=-5;exitPerimeter=0;" parent="NbdiYjX3MhI7OpqD2NvG-1" source="X4nFBjzq5EHVSmgv_8_O-42" target="Iwt6Ft-PqrTWGJXxDrMG-42" edge="1">
          <mxGeometry relative="1" as="geometry">
            <mxPoint x="-15" y="-485" as="sourcePoint" />
            <mxPoint x="135" y="-485" as="targetPoint" />
          </mxGeometry>
        </mxCell>
        <mxCell id="ss8lnyH1w7NE9zKizXeq-2" value="" style="html=1;points=[[0,0,0,0,5],[0,1,0,0,-5],[1,0,0,0,5],[1,1,0,0,-5]];perimeter=orthogonalPerimeter;outlineConnect=0;targetShapes=umlLifeline;portConstraint=eastwest;newEdgeStyle={&quot;curved&quot;:0,&quot;rounded&quot;:0};fontFamily=Open Sans;fillColor=#F0F0F0;" parent="NbdiYjX3MhI7OpqD2NvG-1" vertex="1">
          <mxGeometry x="605" y="-30" width="10" height="50" as="geometry" />
        </mxCell>
        <mxCell id="ss8lnyH1w7NE9zKizXeq-4" value="deep_sleep()" style="html=1;verticalAlign=bottom;endArrow=open;endSize=8;curved=0;rounded=0;fontFamily=Open Sans;endFill=0;entryX=0;entryY=0;entryDx=0;entryDy=5;entryPerimeter=0;fontSize=11;exitX=1;exitY=1;exitDx=0;exitDy=-5;exitPerimeter=0;" parent="NbdiYjX3MhI7OpqD2NvG-1" source="Iwt6Ft-PqrTWGJXxDrMG-42" target="ss8lnyH1w7NE9zKizXeq-2" edge="1">
          <mxGeometry width="80" relative="1" as="geometry">
            <mxPoint x="280" y="-70" as="sourcePoint" />
            <mxPoint x="590" y="-70" as="targetPoint" />
            <mxPoint as="offset" />
          </mxGeometry>
        </mxCell>
        <mxCell id="ss8lnyH1w7NE9zKizXeq-6" value="" style="html=1;points=[[0,0,0,0,5],[0,1,0,0,-5],[1,0,0,0,5],[1,1,0,0,-5]];perimeter=orthogonalPerimeter;outlineConnect=0;targetShapes=umlLifeline;portConstraint=eastwest;newEdgeStyle={&quot;curved&quot;:0,&quot;rounded&quot;:0};fontFamily=Open Sans;fillColor=#F0F0F0;" parent="NbdiYjX3MhI7OpqD2NvG-1" vertex="1">
          <mxGeometry x="125" y="120" width="10" height="10" as="geometry" />
        </mxCell>
        <mxCell id="ss8lnyH1w7NE9zKizXeq-7" value="&lt;i&gt;&lt;font face=&quot;Open Sans&quot;&gt;return from setup()&lt;/font&gt;&lt;/i&gt;" style="rounded=0;orthogonalLoop=1;jettySize=auto;html=1;dashed=1;endArrow=block;endFill=1;exitX=0;exitY=0;exitDx=0;exitDy=5;exitPerimeter=0;entryX=1;entryY=0;entryDx=0;entryDy=5;entryPerimeter=0;" parent="NbdiYjX3MhI7OpqD2NvG-1" source="ss8lnyH1w7NE9zKizXeq-6" target="soHo0XY42Y3cPcA4Dpxr-7" edge="1">
          <mxGeometry x="-0.5082" relative="1" as="geometry">
            <mxPoint x="295" y="-55" as="sourcePoint" />
            <mxPoint x="145" y="-55" as="targetPoint" />
            <mxPoint as="offset" />
          </mxGeometry>
        </mxCell>
        <mxCell id="ss8lnyH1w7NE9zKizXeq-8" value="cond&lt;br&gt;(!TETHERED_MODE)" style="shape=umlFrame;whiteSpace=wrap;html=1;pointerEvents=0;fillColor=#E6E6E6;width=120;height=30;fontFamily=Open Sans;dashed=1;align=left;dashPattern=12 12;" parent="NbdiYjX3MhI7OpqD2NvG-1" vertex="1">
          <mxGeometry x="-320" y="-50" width="960" height="130" as="geometry" />
        </mxCell>
        <mxCell id="soHo0XY42Y3cPcA4Dpxr-5" value="deepSleepInstant()" style="html=1;verticalAlign=bottom;endArrow=open;endSize=8;curved=0;rounded=0;fontFamily=Open Sans;endFill=0;fontSize=11;exitX=0;exitY=1;exitDx=0;exitDy=-5;exitPerimeter=0;" parent="NbdiYjX3MhI7OpqD2NvG-1" source="ss8lnyH1w7NE9zKizXeq-2" target="Iwt6Ft-PqrTWGJXxDrMG-22" edge="1">
          <mxGeometry x="-0.4516" width="80" relative="1" as="geometry">
            <mxPoint x="260" y="175" as="sourcePoint" />
            <mxPoint x="235" y="250" as="targetPoint" />
            <mxPoint as="offset" />
          </mxGeometry>
        </mxCell>
        <mxCell id="soHo0XY42Y3cPcA4Dpxr-6" value="rtcUserMemoryWrite()" style="html=1;verticalAlign=bottom;endArrow=block;endSize=8;curved=0;rounded=0;fontFamily=Open Sans;endFill=1;fontSize=11;" parent="NbdiYjX3MhI7OpqD2NvG-1" source="ss8lnyH1w7NE9zKizXeq-2" target="Iwt6Ft-PqrTWGJXxDrMG-22" edge="1">
          <mxGeometry x="-0.4516" width="80" relative="1" as="geometry">
            <mxPoint x="260" y="145" as="sourcePoint" />
            <mxPoint x="245" y="260" as="targetPoint" />
            <mxPoint as="offset" />
          </mxGeometry>
        </mxCell>
        <mxCell id="soHo0XY42Y3cPcA4Dpxr-7" value="" style="html=1;points=[[0,0,0,0,5],[0,1,0,0,-5],[1,0,0,0,5],[1,1,0,0,-5]];perimeter=orthogonalPerimeter;outlineConnect=0;targetShapes=umlLifeline;portConstraint=eastwest;newEdgeStyle={&quot;curved&quot;:0,&quot;rounded&quot;:0};fillColor=#F0F0F0;" parent="NbdiYjX3MhI7OpqD2NvG-1" vertex="1">
          <mxGeometry x="-190" y="120" width="10" height="10" as="geometry" />
        </mxCell>
      </root>
    </mxGraphModel>
  </diagram>
</mxfile>
